<svg width="18" height="18" viewBox="0 0 18 18" fill="none" xmlns="http://www.w3.org/2000/svg">
<g clip-path="url(#clip0_1_21)">
<path d="M16.8426 9.75655C16.8426 9.75655 17.0831 7.9214 16.6458 7.09171C16.2084 6.26202 14.8584 4.42968 12.0586 4.09921C10.5736 3.92483 9.56812 4.12171 8.65124 4.22999C8.07046 4.2989 6.98906 3.94171 5.04703 4.38327C3.60703 4.71093 1.42171 5.97796 0.711557 8.7089C0.337494 10.1475 0.479525 11.7014 1.11656 13.0106C2.33999 15.5222 4.61109 16.1339 4.61109 16.1339L9.17578 16.5051L14.7023 14.168L16.8426 9.75655Z" fill="#FF2A23"/>
<path d="M11.5355 16.7456C14.4408 16.1775 16.9523 13.5788 17.3897 10.8267C17.7989 8.25188 16.2942 6.52641 16.2942 6.52641C16.2942 6.52641 16.4658 7.90032 16.1451 9.36422C15.8006 10.9308 14.8036 13.5422 11.6451 15.0216C7.76812 16.837 3.52124 15.6403 3.52124 15.6403C3.52124 15.6403 6.40686 17.7483 11.5355 16.7456Z" fill="#DC0D27"/>
<path d="M3.50435 7.41937C2.73232 7.21968 1.76904 7.80327 1.62982 9.51187C1.50185 11.077 2.34982 12.9628 3.18092 12.7378C3.88685 12.5466 3.20764 11.2387 3.45935 10.1658C3.71389 9.09281 4.68139 7.72452 3.50435 7.41937Z" fill="#FED3B0"/>
<path d="M4.48172 6.47578C4.37203 6.61781 4.62656 7.24219 5.9189 7.23375C7.20984 7.22531 7.4264 6.83578 8.00156 7.01015C8.57672 7.18453 9.02531 7.8764 9.66093 8.25468C10.5497 8.78343 11.8322 8.64844 11.8237 8.41359C11.8153 8.17734 11.5017 8.29828 11.2317 7.96781C10.9617 7.63594 10.4836 6.75984 10.4836 6.75984C10.4836 6.75984 10.6172 6.34922 10.8998 6.36469C11.5523 6.39984 12.278 6.27047 12.6773 6.02015C13.1555 5.72203 13.3355 5.26219 13.2483 5.15672C13.1611 5.05265 12.8897 5.3339 12.742 5.30719C12.5944 5.28047 11.6339 5.29875 11.6339 5.29875L10.4737 5.11031C10.4737 5.11031 10.6327 4.43109 10.9462 4.08234C11.2598 3.73359 11.752 3.25406 11.7422 3.19359C11.7323 3.13312 11.3372 3.18656 11.3372 3.18656L10.1152 3.74484L9.26015 4.86984L7.63734 5.07937L6.075 4.03172C6.075 4.03172 5.17922 3.3089 5.13843 3.32578C4.91203 3.41859 5.25656 3.76312 5.51672 4.17937C5.74172 4.54078 5.78812 4.72219 6.09187 4.9739C6.38859 5.21859 6.8864 5.46187 6.8864 5.46187L6.52922 6.10734C6.52922 6.10734 5.3775 6.56156 5.1764 6.56156C4.97672 6.56297 4.54218 6.39844 4.48172 6.47578Z" fill="#BDCF44"/>
<path d="M8.08735 6.08626C8.55844 6.12141 8.89876 6.74719 9.32344 7.17329C9.9436 7.79344 10.4288 8.11688 10.9505 8.23922C11.212 8.29969 11.8125 8.39954 11.8125 8.39954C11.8125 8.39954 11.8997 8.33907 11.603 8.17313C11.3063 8.00719 11.1277 7.68938 11.0841 7.54172C11.0405 7.39407 10.9041 6.90891 10.6172 6.50672C10.3303 6.10454 10.0041 5.93438 10.1081 5.75157C10.2122 5.56876 11.1122 5.87813 11.9784 5.73891C13.1217 5.5561 13.2961 5.18907 13.2441 5.14547C13.192 5.10188 12.4847 5.31141 12.1275 5.23266C11.7703 5.15391 11.4638 4.90922 10.9238 4.90922C10.5553 4.90922 10.1953 5.04282 10.0983 4.84172C10.0167 4.67297 10.3233 4.10907 10.5567 3.89672C11.1234 3.38204 11.7352 3.25969 11.7352 3.18938C11.7352 3.04454 10.7409 2.96297 10.0519 3.51282C9.36563 4.05985 9.49501 4.77844 8.60344 4.77844C8.30672 4.77844 8.19282 4.70813 8.19282 4.70813C8.19282 4.70813 7.79485 4.38047 7.26329 4.09219C6.73172 3.80391 6.33094 3.93188 6.02438 3.78422C5.71922 3.63657 5.17782 3.25407 5.12579 3.33141C5.07375 3.40876 5.53219 3.93188 6.10875 4.35938C6.68532 4.78688 7.33079 5.00485 7.14657 5.17922C6.96375 5.3536 6.6586 5.46751 6.37032 5.68547C6.08204 5.90344 5.82891 6.21704 5.48016 6.33094C5.13141 6.44485 4.55766 6.36469 4.47891 6.46032C4.40016 6.55594 5.08641 6.88641 6.15938 6.68672C7.22954 6.48704 7.23235 6.02297 8.08735 6.08626Z" fill="#94A61D"/>
<path d="M9.15752 0.694675C8.92267 0.683425 8.62595 0.86905 8.62595 0.86905C8.62595 0.86905 8.19564 1.39358 8.02548 2.69577C7.94673 3.29764 8.03252 4.10624 8.01564 4.55202C7.99877 4.99639 7.90173 5.16233 7.92845 5.39014C7.95517 5.61655 8.19283 5.87249 8.74267 5.86686C9.18423 5.86264 9.41205 5.52093 9.40361 5.39858C9.39517 5.27624 9.01689 4.02889 9.12377 2.92921C9.22361 1.90686 9.59627 1.20092 9.61173 1.05327C9.62017 0.973112 9.5147 0.71155 9.15752 0.694675Z" fill="#728035"/>
</g>
<defs>
<clipPath id="clip0_1_21">
<rect width="18" height="18" fill="white"/>
</clipPath>
</defs>
</svg>
